HIERARCHY
ROOT SpineBase
{
  OFFSET 0.000000 0.000000 0.000000
  CHANNELS 6 Xposition Yposition Zposition Zrotation Xrotation Yrotation
  JOINT SpineMid
  {
    OFFSET 0.000000 37.158734 -0.000000
    CHANNELS 3 Zrotation Xrotation Yrotation
    JOINT SpineShoulder
    {
      OFFSET -0.067076 27.341268 -0.733440
      CHANNELS 3 Zrotation Xrotation Yrotation
      JOINT Neck
      {
        OFFSET -0.078414 8.954428 -0.549729
        CHANNELS 3 Zrotation Xrotation Yrotation
        JOINT Head
        {
          OFFSET -8.955798 10.564079 6.683894
          CHANNELS 3 Zrotation Xrotation Yrotation
          End Site
          {
            OFFSET 0 0 0
          }
        }
      }
      JOINT ShoulderLeft
      {
        OFFSET -7.112189 -1.822464 14.477860
        CHANNELS 3 Zrotation Xrotation Yrotation
        JOINT ElbowLeft
        {
          OFFSET 13.891488 -23.378526 -4.549205
          CHANNELS 3 Zrotation Xrotation Yrotation
          JOINT WristLeft
          {
            OFFSET 7.511976 -26.002356 0.893034
            CHANNELS 3 Zrotation Xrotation Yrotation
            JOINT HandLeft
            {
              OFFSET 2.552283 -8.679072 0.688164
              CHANNELS 3 Zrotation Xrotation Yrotation
              JOINT HandTipLeft
              {
                OFFSET 0.251867 0.152568 -0.992786
                CHANNELS 3 Zrotation Xrotation Yrotation
                End Site
                {
                  OFFSET 0 0 0
                }
              }
              JOINT ThumbLeft
              {
                OFFSET 0.659973 0.320651 -2.323943
                CHANNELS 3 Zrotation Xrotation Yrotation
                End Site
                {
                  OFFSET 0 0 0
                }
              }
            }
          }
        }
      }
      JOINT ShoulderRight
      {
        OFFSET 2.867622 -5.520403 -14.456437
        CHANNELS 3 Zrotation Xrotation Yrotation
        JOINT ElbowRight
        {
          OFFSET -3.958216 -25.061175 -4.358718
          CHANNELS 3 Zrotation Xrotation Yrotation
          JOINT WristRight
          {
            OFFSET -5.556977 -21.208714 2.764203
            CHANNELS 3 Zrotation Xrotation Yrotation
            JOINT HandRight
            {
              OFFSET -0.057910 -7.815540 3.352101
              CHANNELS 3 Zrotation Xrotation Yrotation
              JOINT HandTipRight
              {
                OFFSET -1.184655 -7.791125 2.754320
                CHANNELS 3 Zrotation Xrotation Yrotation
                End Site
                {
                  OFFSET 0 0 0
                }
              }
              JOINT ThumbRight
              {
                OFFSET 5.026006 0.772135 -0.945919
                CHANNELS 3 Zrotation Xrotation Yrotation
                End Site
                {
                  OFFSET 0 0 0
                }
              }
            }
          }
        }
      }
    }
  }
  JOINT HipLeft
  {
    OFFSET -2.724647 -1.238994 0.762325
    CHANNELS 3 Zrotation Xrotation Yrotation
    JOINT KneeLeft
    {
      OFFSET 4.956119 -35.086794 18.047561
      CHANNELS 3 Zrotation Xrotation Yrotation
      JOINT AnkleLeft
      {
        OFFSET 5.492526 -30.839500 2.858157
        CHANNELS 3 Zrotation Xrotation Yrotation
        JOINT FootLeft
        {
          OFFSET -7.916609 3.910569 -1.680704
          CHANNELS 3 Zrotation Xrotation Yrotation
          End Site
          {
            OFFSET 0 0 0
          }
        }
      }
    }
  }
  JOINT HipRight
  {
    OFFSET 1.998242 2.428727 -7.789133
    CHANNELS 3 Zrotation Xrotation Yrotation
    JOINT KneeRight
    {
      OFFSET 3.947682 -29.192704 2.308941
      CHANNELS 3 Zrotation Xrotation Yrotation
      JOINT AnkleRight
      {
        OFFSET 9.274418 -31.672308 4.213439
        CHANNELS 3 Zrotation Xrotation Yrotation
        JOINT FootRight
        {
          OFFSET -2.180001 -7.673483 -3.432915
          CHANNELS 3 Zrotation Xrotation Yrotation
          End Site
          {
            OFFSET 0 0 0
          }
        }
      }
    }
  }
}
MOTION
Frames: 14
Frame Time: 0.033333
32.145148 67.945903 288.469141 2.346131 -0.757125 57.559840 -0.987637 0.381996 -57.485892 0.155894 -0.887873 0.055510 -4.896553 -1.470227 -1.200927 0.000000 0.000000 0.000000 -1.647338 2.275662 -0.048554 -0.000000 0.000000 0.000000 2.965108 3.632470 1.203504 -5.173735 -12.955811 0.562635 0.000000 0.000000 0.000000 0.000000 0.000000 0.000000 3.788122 3.703303 -1.510811 -8.002247 -5.581023 1.630038 2.041222 -1.350461 -0.985559 -23.219446 3.479565 -5.974662 0.000000 0.000000 0.000000 0.000000 0.000000 0.000000 -17.181963 9.133600 -64.632343 20.262843 12.563446 6.430189 54.231034 -31.153112 -7.553129 0.000000 0.000000 0.000000 -0.332633 18.397141 -57.442596 23.505353 -10.289030 3.333000 -7.831257 15.897816 -5.494759 0.000000 0.000000 0.000000
32.676977 68.246832 289.404635 1.864279 -3.147404 57.194270 -1.339202 0.439937 -57.082751 0.080154 -1.150020 0.001512 -6.739233 -0.639831 -1.016941 0.000000 0.000000 0.000000 -0.846878 5.184050 0.031865 -0.000000 0.000000 0.000000 -4.277510 17.878339 5.764905 -10.598417 -54.482014 -4.085094 0.000000 0.000000 0.000000 0.000000 0.000000 0.000000 5.748135 5.470681 -1.784722 -9.387829 -5.148197 1.864412 1.241450 -0.502146 -1.547866 -22.918865 -1.600604 -6.126798 0.000000 0.000000 0.000000 0.000000 0.000000 0.000000 -14.307819 12.774332 -64.536551 23.543334 11.624685 7.400900 52.926371 -33.152152 -8.321128 0.000000 0.000000 0.000000 7.941581 23.692121 -57.579413 26.795235 -14.410256 6.205209 -13.927056 17.877782 -5.810882 0.000000 0.000000 0.000000
33.465826 68.934778 288.948711 0.607120 -5.649713 57.333847 -1.521083 0.461162 -57.265267 0.009621 -1.266443 -0.080508 -8.346001 -0.122480 -0.566258 0.000000 0.000000 0.000000 0.587332 7.947453 0.065241 -0.000000 0.000000 0.000000 -12.432562 29.065603 11.551703 -70.628665 -80.349517 -64.579733 0.000000 0.000000 0.000000 0.000000 0.000000 0.000000 7.220301 6.359927 -1.675445 -10.940294 -5.751931 2.098711 2.506966 2.629790 -2.178705 -21.211724 -5.676657 -5.968607 0.000000 0.000000 0.000000 0.000000 0.000000 0.000000 -10.095439 15.157775 -64.902862 24.327093 7.382906 7.897734 58.285225 -30.011756 -6.447812 0.000000 0.000000 0.000000 17.195381 25.798899 -58.672603 26.847417 -17.121267 8.339732 -16.965732 18.059450 -7.071382 0.000000 0.000000 0.000000
34.580480 69.753111 287.305276 -1.224632 -8.120874 57.098790 -1.588030 0.368270 -57.196415 0.008624 -1.161101 -0.174791 -9.921109 -0.118150 -0.023798 0.000000 0.000000 0.000000 2.365368 10.423313 0.021097 -0.000000 0.000000 0.000000 -19.186215 35.231598 16.439708 -140.744495 -71.105552 -135.601004 0.000000 0.000000 0.000000 0.000000 0.000000 0.000000 7.746074 6.738309 -1.141485 -12.275828 -6.180847 1.972219 6.261547 3.662656 -2.394080 -23.057654 -5.121393 -6.103784 0.000000 0.000000 0.000000 0.000000 0.000000 0.000000 -4.354355 14.850737 -64.316318 22.330561 2.861430 7.415585 55.784991 -20.911836 -4.400860 0.000000 0.000000 0.000000 25.697783 25.506443 -59.147097 24.541623 -18.479971 9.252352 -17.870960 16.317152 -8.546656 0.000000 0.000000 0.000000
35.778541 70.612778 284.654932 -3.406710 -10.257746 57.259890 -1.408622 0.115323 -57.662392 0.051655 -0.949171 -0.261765 -11.274705 -0.246519 0.794855 0.000000 0.000000 0.000000 4.160144 12.355254 -0.086913 3.366275 2.543523 0.769867 -16.619024 35.105399 14.176649 -127.709525 -68.238680 -124.008728 0.000000 0.000000 0.000000 0.000000 0.000000 0.000000 6.974707 6.596414 -0.126864 -13.010161 -5.931953 1.389230 11.648810 0.975343 -2.171722 -23.149539 -0.672655 -4.499522 0.000000 0.000000 0.000000 0.000000 0.000000 0.000000 0.919337 13.003904 -64.018723 17.984435 -3.101980 5.970540 48.647170 -12.904114 -7.121263 0.000000 0.000000 0.000000 32.765801 23.142208 -59.362474 21.234620 -18.974808 9.155462 -17.414100 12.256544 -9.617987 0.000000 0.000000 0.000000
37.398581 70.591054 280.841736 -5.636257 -12.106360 55.920572 -0.975976 -0.167345 -56.713920 0.069601 -0.580116 -0.325245 -11.591487 -0.356448 1.267752 0.000000 0.000000 0.000000 5.357065 10.216907 -2.070228 2.758218 5.113139 2.306879 -22.274682 27.894495 12.207614 -133.862109 -73.326367 -133.124438 0.000000 0.000000 0.000000 0.000000 0.000000 0.000000 5.675292 7.137943 0.881426 -14.153103 -6.916836 0.512926 13.950941 -2.504546 -3.174602 -20.189768 5.644179 -1.831384 0.000000 0.000000 0.000000 0.000000 0.000000 0.000000 1.893328 12.077695 -63.416744 16.693193 -6.162983 5.354072 51.143956 -7.770746 -8.607621 0.000000 0.000000 0.000000 36.201080 22.218478 -57.978348 20.434570 -18.929622 9.235935 -11.048789 4.665833 -11.606286 0.000000 0.000000 0.000000
39.086174 69.618422 275.685307 -7.811341 -12.653453 55.310212 -0.297387 -0.760609 -56.503610 0.151822 0.122924 -0.332167 -11.371650 -1.797925 0.629003 0.000000 0.000000 0.000000 6.764219 10.747661 -1.672360 -3.959182 2.606542 1.550391 -16.513948 26.703813 12.278003 -168.607915 -77.070501 -158.556732 0.000000 0.000000 0.000000 0.000000 0.000000 0.000000 4.041841 7.368417 1.725209 -15.845999 -8.696480 -0.651316 13.636099 -5.212740 -5.085017 -16.886652 10.118783 0.591278 0.000000 0.000000 0.000000 0.000000 0.000000 0.000000 -0.798928 9.763612 -64.204365 15.857555 -6.353887 4.956087 57.514136 -4.909176 -10.843778 0.000000 0.000000 0.000000 34.599643 19.231997 -56.476500 21.144020 -16.202147 8.958282 -10.259622 -0.164727 -10.832986 0.000000 0.000000 0.000000
41.174032 68.278686 270.807692 -8.997569 -13.316943 52.238452 0.166062 -0.522416 -53.621989 -0.036755 -0.500710 -0.410442 -10.587545 -1.704485 0.328125 0.000000 0.000000 0.000000 10.785502 22.472442 3.295973 -17.641877 -18.598615 -12.155590 -16.406419 23.231927 13.940054 151.397307 -61.046773 169.725779 0.000000 0.000000 0.000000 0.000000 0.000000 0.000000 3.048687 10.025763 2.257263 -17.906723 -10.969883 -2.088926 11.517200 -6.443417 -7.382190 -12.133198 11.460626 2.580324 0.000000 0.000000 0.000000 0.000000 0.000000 0.000000 -5.209773 9.187745 -62.938549 16.272348 -5.751384 5.153199 67.289533 -8.747164 -15.770313 0.000000 0.000000 0.000000 30.900278 20.530881 -53.583001 24.977387 -14.618392 9.399838 -11.873279 -0.271170 -9.800163 0.000000 0.000000 0.000000
43.194006 66.620668 266.689836 -9.627994 -13.877359 48.188613 -0.220956 -0.409783 -49.705449 0.155918 -0.741172 -0.485555 -10.076184 -1.714003 -0.594586 0.000000 0.000000 0.000000 11.436335 29.430702 6.477904 -36.459892 -29.015601 -28.514800 -7.170122 10.435461 6.291371 117.914354 -41.867381 141.032408 0.000000 0.000000 0.000000 0.000000 0.000000 0.000000 1.664740 12.235509 2.960595 -19.404222 -11.983425 -3.414247 10.969297 -8.296956 -8.903518 -13.985139 13.309950 3.927635 0.000000 0.000000 0.000000 0.000000 0.000000 0.000000 -11.210219 9.611264 -61.079286 19.445819 -3.089829 6.017476 77.146819 -13.185385 -18.077265 0.000000 0.000000 0.000000 24.930244 23.335284 -49.614794 31.034295 -12.927917 10.029312 -18.029255 6.305756 -8.353098 0.000000 0.000000 0.000000
44.876031 64.775062 263.925135 -9.874147 -14.613183 44.387411 -0.913011 -0.466319 -46.011358 0.278914 -1.008917 -0.557578 -8.976347 -1.342414 -2.321461 0.000000 0.000000 0.000000 8.604349 32.743866 9.357332 -52.224463 -30.151262 -42.191434 -0.529546 10.328274 5.154693 114.444034 -31.806499 133.587668 0.000000 0.000000 0.000000 0.000000 0.000000 0.000000 1.298981 16.379591 3.150908 -19.440088 -13.891047 -4.361862 6.069834 -8.084918 -10.674557 -11.197578 9.784051 4.529516 0.000000 0.000000 0.000000 0.000000 0.000000 0.000000 -17.594675 11.454745 -59.387173 24.668206 -0.208275 6.984953 86.508229 -18.298645 -19.077869 0.000000 0.000000 0.000000 18.416228 27.725185 -45.366316 39.630814 -12.818228 11.284347 -23.359935 14.165339 -7.138800 0.000000 0.000000 0.000000
46.184055 63.652084 262.375082 -10.483866 -16.277218 41.345050 -1.437734 -0.636014 -43.232899 0.416209 -1.168168 -0.641790 -9.086436 -1.408718 -4.157640 0.000000 0.000000 0.000000 2.170917 32.102442 12.092848 -56.376511 -25.823988 -44.906827 -0.156369 9.322022 4.978751 124.081362 -36.084565 128.483899 0.000000 0.000000 0.000000 0.000000 0.000000 0.000000 2.226773 20.100077 2.983334 -20.056234 -14.531302 -4.743548 2.462183 -8.591968 -11.985846 -10.507625 8.486100 5.051078 0.000000 0.000000 0.000000 0.000000 0.000000 0.000000 -20.239472 13.807571 -57.306246 28.637676 1.235167 7.663918 87.348558 -17.981995 -19.473304 0.000000 0.000000 0.000000 15.727968 31.652269 -41.912217 44.337436 -14.188045 12.113057 -41.323703 22.983923 2.535534 0.000000 0.000000 0.000000
46.883071 63.227370 262.596103 -11.121229 -18.626082 39.394603 -1.908597 -0.812451 -41.631510 0.471126 -1.296473 -0.726454 -9.937858 -1.486165 -6.004495 0.000000 0.000000 0.000000 -8.130849 25.375989 13.088696 -45.076386 -20.324627 -33.873256 -14.951481 11.503567 14.963409 163.605039 -48.469201 145.779959 0.000000 0.000000 0.000000 0.000000 0.000000 0.000000 4.621223 23.761201 2.074700 -20.774583 -15.147591 -4.451973 -1.160862 -6.524269 -12.607904 -7.044219 6.448609 5.010169 0.000000 0.000000 0.000000 0.000000 0.000000 0.000000 -19.446118 17.526793 -55.052424 31.924046 1.039561 8.426781 83.765202 -13.080171 -18.154511 0.000000 0.000000 0.000000 16.315503 35.689938 -40.039073 46.031798 -15.748883 12.927452 -52.729059 26.059633 9.754637 0.000000 0.000000 0.000000
47.385339 63.248853 262.312123 -11.983976 -20.546194 37.958089 -2.088772 -0.935897 -40.576935 0.524499 -1.288311 -0.794232 -10.769046 -2.190363 -8.018337 0.000000 0.000000 0.000000 -20.380497 11.148750 8.306345 -25.905638 -7.991800 -11.137177 -6.339165 8.967338 7.452111 164.116853 -54.930563 147.038704 0.000000 0.000000 0.000000 0.000000 0.000000 0.000000 7.292006 25.507898 0.963387 -21.625170 -16.096927 -3.833045 -3.157195 -4.211447 -12.798129 -6.204501 7.351307 5.250574 0.000000 0.000000 0.000000 0.000000 0.000000 0.000000 -20.737522 20.585455 -53.894186 36.847296 3.869683 9.111987 84.894511 -8.576289 -14.224418 0.000000 0.000000 0.000000 17.569101 37.374485 -38.997309 44.782728 -16.701206 12.456426 -58.244909 28.023741 14.398541 0.000000 0.000000 0.000000
47.735205 63.605262 262.289140 -12.737912 -22.338137 36.631866 -2.046804 -1.044864 -39.631085 0.591567 -1.120483 -0.831011 -12.012734 -2.936062 -9.486724 0.000000 0.000000 0.000000 -30.692076 -2.710442 -1.921163 -8.746767 13.790641 13.337512 -0.131919 4.005906 0.705272 168.234529 -63.312680 156.727916 0.000000 0.000000 0.000000 0.000000 0.000000 0.000000 9.633784 26.257396 -0.125494 -22.126788 -16.205497 -3.018677 -3.311491 -3.858876 -12.601851 -7.654854 11.144463 5.753495 0.000000 0.000000 0.000000 0.000000 0.000000 0.000000 -17.894223 21.997597 -52.035314 37.795275 3.719185 9.388328 81.786027 0.617762 -9.529480 0.000000 0.000000 0.000000 19.721867 38.453008 -38.453549 41.574049 -17.508742 11.455600 -59.485165 28.720201 16.632164 0.000000 0.000000 0.000000
